<svg xmlns="http://www.w3.org/2000/svg" viewBox="0 0 800 600" width="800" height="600">
<defs><radialGradient id="clpr" cx="50%" cy="38%" r="75%"><stop offset="0" stop-color="#0d4563"/><stop offset="1" stop-color="#082f45"/></radialGradient></defs>
<rect width="800" height="600" fill="url(#clpr)"/>
<path d="M80 470L400 230L720 470Z" fill="#082f45" opacity=".7"/><path d="M60 470L400 224L740 470" fill="none" stroke="#c8d7de" stroke-width="16" stroke-linejoin="round"/><path d="M360 260l-70 52l8 14l70 -52Z" fill="#328dd9" stroke="#0d4563" stroke-width="2.5" stroke-linejoin="round"/><path d="M296 308l-70 52l8 14l70 -52Z" fill="#4b9be0" stroke="#0d4563" stroke-width="2.5" stroke-linejoin="round"/><path d="M232 356l-70 52l8 14l70 -52Z" fill="#328dd9" stroke="#0d4563" stroke-width="2.5" stroke-linejoin="round"/><path d="M168 404l-70 52l8 14l70 -52Z" fill="#4b9be0" stroke="#0d4563" stroke-width="2.5" stroke-linejoin="round"/><path d="M104 452l-70 52l8 14l70 -52Z" fill="#328dd9" stroke="#0d4563" stroke-width="2.5" stroke-linejoin="round"/><path d="M440 260l70 52l-8 14l-70 -52Z" fill="#328dd9" stroke="#0d4563" stroke-width="2.5" stroke-linejoin="round"/><path d="M504 308l70 52l-8 14l-70 -52Z" fill="#4b9be0" stroke="#0d4563" stroke-width="2.5" stroke-linejoin="round"/><path d="M568 356l70 52l-8 14l-70 -52Z" fill="#328dd9" stroke="#0d4563" stroke-width="2.5" stroke-linejoin="round"/><path d="M632 404l70 52l-8 14l-70 -52Z" fill="#4b9be0" stroke="#0d4563" stroke-width="2.5" stroke-linejoin="round"/><path d="M696 452l70 52l-8 14l-70 -52Z" fill="#328dd9" stroke="#0d4563" stroke-width="2.5" stroke-linejoin="round"/><path d="M344 270L400 226L456 270L444 280L400 246L356 280Z" fill="#e8eff3" stroke="#0d4563" stroke-width="2.5" stroke-linejoin="round"/><path d="M350 288L340 270L400 212L460 270L450 288" fill="none" stroke="#ffffff" stroke-width="8" stroke-linecap="round" stroke-linejoin="round"/><path d="M400 212V190" stroke="#ffffff" stroke-width="8" stroke-linecap="round"/><circle cx="400" cy="172" r="45" fill="#328dd9" opacity=".22"/><circle cx="400" cy="172" r="29" fill="#83bfe8" opacity=".28"/><rect x="391" y="187" width="18" height="14" rx="3" fill="#c8d7de"/><path d="M400 148C421 164 416 187 400 187C384 187 379 164 400 148Z" fill="#ffffff"/><circle cx="720" cy="80" r="30" fill="#ffffff"/><path d="M707 81l9 10 18-21" fill="none" stroke="#1868ac" stroke-width="7" stroke-linecap="round" stroke-linejoin="round"/>
</svg>
