<svg xmlns="http://www.w3.org/2000/svg" viewBox="0 0 800 600" width="800" height="600">
<defs><radialGradient id="clgc" cx="50%" cy="38%" r="75%"><stop offset="0" stop-color="#0d4563"/><stop offset="1" stop-color="#082f45"/></radialGradient></defs>
<rect width="800" height="600" fill="url(#clgc)"/>
<ellipse cx="400" cy="560" rx="370" ry="14" fill="#00121c" opacity=".32"/><path d="M40 400H760V522Q760 540 742 540H58Q40 540 40 522Z" fill="#c8d7de"/><rect x="40" y="400" width="720" height="45" fill="#e8eff3"/><rect x="40" y="445" width="720" height="42" fill="#d8e3e9"/><ellipse cx="654" cy="420" rx="4.6" ry="4.3" fill="#0d4563" opacity="0.06"/><ellipse cx="703" cy="477" rx="5.3" ry="2.3" fill="#0d4563" opacity="0.06"/><ellipse cx="512" cy="509" rx="4.3" ry="2.9" fill="#0d4563" opacity="0.11"/><ellipse cx="146" cy="429" rx="4.6" ry="3.1" fill="#0d4563" opacity="0.06"/><ellipse cx="142" cy="422" rx="4.5" ry="2.1" fill="#0d4563" opacity="0.09"/><ellipse cx="570" cy="463" rx="6.5" ry="4.5" fill="#0d4563" opacity="0.07"/><ellipse cx="174" cy="497" rx="3.1" ry="3.8" fill="#0d4563" opacity="0.05"/><ellipse cx="675" cy="413" rx="4.4" ry="3.2" fill="#0d4563" opacity="0.06"/><ellipse cx="620" cy="504" rx="4.3" ry="3.5" fill="#0d4563" opacity="0.10"/><ellipse cx="270" cy="509" rx="3.8" ry="4.2" fill="#0d4563" opacity="0.12"/><ellipse cx="415" cy="419" rx="5.5" ry="3.5" fill="#0d4563" opacity="0.09"/><ellipse cx="588" cy="429" rx="5.4" ry="3.6" fill="#0d4563" opacity="0.10"/><ellipse cx="585" cy="443" rx="4.6" ry="3.0" fill="#0d4563" opacity="0.08"/><ellipse cx="326" cy="415" rx="3.9" ry="3.6" fill="#0d4563" opacity="0.11"/><ellipse cx="487" cy="478" rx="3.9" ry="3.0" fill="#0d4563" opacity="0.09"/><ellipse cx="186" cy="448" rx="3.2" ry="4.7" fill="#0d4563" opacity="0.09"/><ellipse cx="118" cy="436" rx="3.5" ry="2.3" fill="#0d4563" opacity="0.12"/><ellipse cx="736" cy="510" rx="5.9" ry="2.1" fill="#0d4563" opacity="0.11"/><ellipse cx="607" cy="494" rx="5.3" ry="3.0" fill="#0d4563" opacity="0.11"/><ellipse cx="135" cy="448" rx="6.5" ry="4.3" fill="#0d4563" opacity="0.07"/><ellipse cx="610" cy="468" rx="3.5" ry="4.0" fill="#0d4563" opacity="0.11"/><ellipse cx="362" cy="495" rx="5.5" ry="3.2" fill="#0d4563" opacity="0.05"/><ellipse cx="629" cy="505" rx="4.8" ry="4.0" fill="#0d4563" opacity="0.08"/><ellipse cx="106" cy="476" rx="5.8" ry="3.7" fill="#0d4563" opacity="0.09"/><ellipse cx="715" cy="509" rx="4.3" ry="5.0" fill="#0d4563" opacity="0.06"/><ellipse cx="87" cy="424" rx="3.5" ry="3.8" fill="#0d4563" opacity="0.08"/><ellipse cx="293" cy="499" rx="4.9" ry="4.1" fill="#0d4563" opacity="0.07"/><ellipse cx="163" cy="504" rx="4.8" ry="3.9" fill="#0d4563" opacity="0.11"/><ellipse cx="453" cy="483" rx="6.7" ry="3.7" fill="#0d4563" opacity="0.06"/><ellipse cx="137" cy="514" rx="3.4" ry="2.5" fill="#0d4563" opacity="0.08"/><ellipse cx="596" cy="475" rx="4.2" ry="4.6" fill="#0d4563" opacity="0.08"/><ellipse cx="243" cy="511" rx="6.7" ry="4.1" fill="#0d4563" opacity="0.05"/><rect x="40" y="400" width="720" height="12" fill="#328dd9"/><rect x="60" y="400" width="250" height="134" fill="#c8d7de"/><rect x="72" y="412" width="222" height="110" fill="#0d4563"/><rect x="72" y="412" width="222" height="6" fill="#082f45" opacity=".6"/><rect x="60" y="190" width="250" height="210" fill="#1868ac"/><path d="M60 222H310" stroke="#0d4563" stroke-width="3" opacity=".7"/><path d="M60 255H310" stroke="#0d4563" stroke-width="3" opacity=".7"/><path d="M60 288H310" stroke="#0d4563" stroke-width="3" opacity=".7"/><path d="M60 321H310" stroke="#0d4563" stroke-width="3" opacity=".7"/><path d="M60 354H310" stroke="#0d4563" stroke-width="3" opacity=".7"/><path d="M60 387H310" stroke="#0d4563" stroke-width="3" opacity=".7"/><rect x="110" y="250" width="54" height="70" rx="4" fill="#082f45" stroke="#c8d7de" stroke-width="5"/><rect x="210" y="250" width="54" height="70" rx="4" fill="#082f45" stroke="#c8d7de" stroke-width="5"/><path d="M60 190 H310 L60 96Z" fill="#082f45" stroke="#c8d7de" stroke-width="3"/><path d="M20 70 L346 186 L346 210 L20 94Z" fill="#0d4563" stroke="#83bfe8" stroke-width="4" stroke-linejoin="round"/><path d="M75 90 l0 24" stroke="#328dd9" stroke-width="3" opacity=".6"/><path d="M130 109 l0 24" stroke="#328dd9" stroke-width="3" opacity=".6"/><path d="M185 129 l0 24" stroke="#328dd9" stroke-width="3" opacity=".6"/><path d="M240 148 l0 24" stroke="#328dd9" stroke-width="3" opacity=".6"/><path d="M295 168 l0 24" stroke="#328dd9" stroke-width="3" opacity=".6"/><path d="M20 40 Q160 70 260 128 T346 178 L346 186 L20 70Z" fill="#ffffff"/><path d="M322 196v42q0 16 16 16h48q16 0 16-16v-46" fill="#0d4563" stroke="#e8eff3" stroke-width="7" stroke-linejoin="round"/><g transform="translate(361 221) rotate(29) scale(1.24)"><path d="M-14 0Q-4 -10 14 0Q-4 10 -14 0Z" fill="#c8d7de"/><path d="M-12 0H12" stroke="#0d4563" stroke-width="1.4" opacity=".35"/></g><g transform="translate(364 231) rotate(9) scale(1.14)"><path d="M-14 0Q-4 -10 14 0Q-4 10 -14 0Z" fill="#c8d7de"/><path d="M-12 0H12" stroke="#0d4563" stroke-width="1.4" opacity=".35"/></g><g transform="translate(333 218) rotate(120) scale(1.28)"><path d="M-14 0Q-4 -10 14 0Q-4 10 -14 0Z" fill="#83bfe8"/><path d="M-12 0H12" stroke="#0d4563" stroke-width="1.4" opacity=".35"/></g><g transform="translate(334 234) rotate(71) scale(1.04)"><path d="M-14 0Q-4 -10 14 0Q-4 10 -14 0Z" fill="#c8d7de"/><path d="M-12 0H12" stroke="#0d4563" stroke-width="1.4" opacity=".35"/></g><g transform="translate(363 225) rotate(138) scale(0.99)"><path d="M-14 0Q-4 -10 14 0Q-4 10 -14 0Z" fill="#e8eff3"/><path d="M-12 0H12" stroke="#0d4563" stroke-width="1.4" opacity=".35"/></g><g transform="translate(378 231) rotate(3) scale(1.06)"><path d="M-14 0Q-4 -10 14 0Q-4 10 -14 0Z" fill="#e8eff3"/><path d="M-12 0H12" stroke="#0d4563" stroke-width="1.4" opacity=".35"/></g><g transform="translate(357 216) rotate(133) scale(1.18)"><path d="M-14 0Q-4 -10 14 0Q-4 10 -14 0Z" fill="#c8d7de"/><path d="M-12 0H12" stroke="#0d4563" stroke-width="1.4" opacity=".35"/></g><g transform="translate(357 224) rotate(68) scale(0.97)"><path d="M-14 0Q-4 -10 14 0Q-4 10 -14 0Z" fill="#83bfe8"/><path d="M-12 0H12" stroke="#0d4563" stroke-width="1.4" opacity=".35"/></g><g transform="translate(392 203) rotate(119) scale(0.91)"><path d="M-14 0Q-4 -10 14 0Q-4 10 -14 0Z" fill="#83bfe8"/><path d="M-12 0H12" stroke="#0d4563" stroke-width="1.4" opacity=".35"/></g><g transform="translate(358 228) rotate(43) scale(1.03)"><path d="M-14 0Q-4 -10 14 0Q-4 10 -14 0Z" fill="#c8d7de"/><path d="M-12 0H12" stroke="#0d4563" stroke-width="1.4" opacity=".35"/></g><g transform="translate(333 213) rotate(173) scale(1.09)"><path d="M-14 0Q-4 -10 14 0Q-4 10 -14 0Z" fill="#83bfe8"/><path d="M-12 0H12" stroke="#0d4563" stroke-width="1.4" opacity=".35"/></g><g transform="translate(342 224) rotate(160) scale(0.96)"><path d="M-14 0Q-4 -10 14 0Q-4 10 -14 0Z" fill="#c8d7de"/><path d="M-12 0H12" stroke="#0d4563" stroke-width="1.4" opacity=".35"/></g><g transform="translate(378 205) rotate(53) scale(1.20)"><path d="M-14 0Q-4 -10 14 0Q-4 10 -14 0Z" fill="#83bfe8"/><path d="M-12 0H12" stroke="#0d4563" stroke-width="1.4" opacity=".35"/></g><g transform="translate(376 210) rotate(14) scale(1.12)"><path d="M-14 0Q-4 -10 14 0Q-4 10 -14 0Z" fill="#e8eff3"/><path d="M-12 0H12" stroke="#0d4563" stroke-width="1.4" opacity=".35"/></g><g transform="translate(374 235) rotate(28) scale(1.02)"><path d="M-14 0Q-4 -10 14 0Q-4 10 -14 0Z" fill="#c8d7de"/><path d="M-12 0H12" stroke="#0d4563" stroke-width="1.4" opacity=".35"/></g><g transform="translate(381 213) rotate(110) scale(1.09)"><path d="M-14 0Q-4 -10 14 0Q-4 10 -14 0Z" fill="#c8d7de"/><path d="M-12 0H12" stroke="#0d4563" stroke-width="1.4" opacity=".35"/></g><path d="M262 160 Q320 160 406 196 L406 214 L254 166Z" fill="#ffffff" stroke="#83bfe8" stroke-width="3"/><path d="M328 252 l6 40 l6 -40z" fill="#ffffff" opacity=".9"/><path d="M340 252 l6 62 l6 -62z" fill="#ffffff" opacity=".9"/><path d="M352 252 l6 84 l6 -84z" fill="#ffffff" opacity=".9"/><path d="M364 252 l6 40 l6 -40z" fill="#ffffff" opacity=".9"/><path d="M376 252 l6 62 l6 -62z" fill="#ffffff" opacity=".9"/><path d="M388 252 l6 84 l6 -84z" fill="#ffffff" opacity=".9"/><path d="M400 252 l6 40 l6 -40z" fill="#ffffff" opacity=".9"/><path d="M160 120 Q210 140 254 160" fill="none" stroke="#9cc9ea" stroke-width="10" stroke-linecap="round"/><path d="M232 160 Q200 172 172 180" fill="none" stroke="#e8eff3" stroke-width="6" stroke-linecap="round" stroke-linejoin="round"/><path d="M183.7 166.3L172 180L189.0 186.0" fill="none" stroke="#e8eff3" stroke-width="7" stroke-linecap="round" stroke-linejoin="round"/><path d="M150 190 q8 14 0 22 q-8 -8 0 -22z" fill="#9cc9ea"/><path d="M196 192 q8 14 0 22 q-8 -8 0 -22z" fill="#9cc9ea"/>
</svg>
