<svg xmlns="http://www.w3.org/2000/svg" viewBox="0 0 800 600" width="800" height="600">
<defs><radialGradient id="dse" cx="50%" cy="38%" r="75%"><stop offset="0" stop-color="#0d4563"/><stop offset="1" stop-color="#082f45"/></radialGradient></defs>
<rect width="800" height="600" fill="url(#dse)"/>
<ellipse cx="420" cy="560" rx="360" ry="14" fill="#00121c" opacity=".32"/><path d="M60 360 L760 430 V520 Q760 540 742 540 H78 Q60 540 60 522Z" fill="#c8d7de"/><path d="M60 360 L760 430 V470 L60 400Z" fill="#e8eff3"/><rect x="60" y="90" width="150" height="270" fill="#1868ac"/><path d="M60 122H210" stroke="#0d4563" stroke-width="3" opacity=".7"/><path d="M60 155H210" stroke="#0d4563" stroke-width="3" opacity=".7"/><path d="M60 188H210" stroke="#0d4563" stroke-width="3" opacity=".7"/><path d="M60 221H210" stroke="#0d4563" stroke-width="3" opacity=".7"/><path d="M60 254H210" stroke="#0d4563" stroke-width="3" opacity=".7"/><path d="M60 287H210" stroke="#0d4563" stroke-width="3" opacity=".7"/><path d="M60 320H210" stroke="#0d4563" stroke-width="3" opacity=".7"/><path d="M60 353H210" stroke="#0d4563" stroke-width="3" opacity=".7"/><path d="M214 375l3 -24l3 24z" fill="#328dd9"/><path d="M222 376l3 -17l3 17z" fill="#4b9be0"/><path d="M228 377l3 -21l3 21z" fill="#2a80cc"/><path d="M236 378l3 -16l3 16z" fill="#4b9be0"/><path d="M243 378l3 -15l3 15z" fill="#2a80cc"/><path d="M249 379l3 -26l3 26z" fill="#4b9be0"/><path d="M257 380l3 -23l3 23z" fill="#2a80cc"/><path d="M263 380l3 -23l3 23z" fill="#328dd9"/><path d="M271 381l3 -18l3 18z" fill="#2a80cc"/><path d="M279 382l3 -24l3 24z" fill="#4b9be0"/><path d="M286 383l3 -17l3 17z" fill="#2a80cc"/><path d="M295 383l3 -21l3 21z" fill="#328dd9"/><path d="M302 384l3 -15l3 15z" fill="#4b9be0"/><path d="M308 385l3 -24l3 24z" fill="#4b9be0"/><path d="M316 386l3 -14l3 14z" fill="#4b9be0"/><path d="M325 386l3 -26l3 26z" fill="#328dd9"/><path d="M332 387l3 -15l3 15z" fill="#2a80cc"/><path d="M341 388l3 -22l3 22z" fill="#328dd9"/><path d="M350 389l3 -25l3 25z" fill="#328dd9"/><path d="M359 390l3 -26l3 26z" fill="#2a80cc"/><path d="M366 391l3 -24l3 24z" fill="#4b9be0"/><path d="M372 391l3 -23l3 23z" fill="#4b9be0"/><path d="M378 392l3 -16l3 16z" fill="#328dd9"/><path d="M388 393l3 -15l3 15z" fill="#4b9be0"/><path d="M395 394l3 -23l3 23z" fill="#4b9be0"/><path d="M405 394l3 -16l3 16z" fill="#4b9be0"/><path d="M414 395l3 -17l3 17z" fill="#4b9be0"/><path d="M422 396l3 -25l3 25z" fill="#4b9be0"/><path d="M432 397l3 -15l3 15z" fill="#328dd9"/><path d="M438 398l3 -21l3 21z" fill="#4b9be0"/><path d="M448 399l3 -24l3 24z" fill="#328dd9"/><path d="M456 400l3 -14l3 14z" fill="#2a80cc"/><path d="M465 401l3 -21l3 21z" fill="#2a80cc"/><path d="M473 401l3 -26l3 26z" fill="#4b9be0"/><path d="M482 402l3 -23l3 23z" fill="#328dd9"/><path d="M491 403l3 -26l3 26z" fill="#2a80cc"/><path d="M500 404l3 -23l3 23z" fill="#4b9be0"/><path d="M508 405l3 -18l3 18z" fill="#2a80cc"/><path d="M518 406l3 -18l3 18z" fill="#2a80cc"/><path d="M526 407l3 -22l3 22z" fill="#2a80cc"/><path d="M534 407l3 -16l3 16z" fill="#4b9be0"/><path d="M541 408l3 -16l3 16z" fill="#328dd9"/><path d="M549 409l3 -24l3 24z" fill="#2a80cc"/><path d="M558 410l3 -24l3 24z" fill="#4b9be0"/><path d="M565 410l3 -16l3 16z" fill="#4b9be0"/><path d="M571 411l3 -18l3 18z" fill="#4b9be0"/><path d="M578 412l3 -22l3 22z" fill="#2a80cc"/><path d="M587 413l3 -19l3 19z" fill="#328dd9"/><path d="M593 413l3 -22l3 22z" fill="#4b9be0"/><path d="M600 414l3 -20l3 20z" fill="#328dd9"/><path d="M609 415l3 -23l3 23z" fill="#2a80cc"/><path d="M619 416l3 -26l3 26z" fill="#4b9be0"/><path d="M625 417l3 -17l3 17z" fill="#2a80cc"/><path d="M633 417l3 -24l3 24z" fill="#4b9be0"/><path d="M640 418l3 -21l3 21z" fill="#328dd9"/><path d="M647 419l3 -22l3 22z" fill="#328dd9"/><path d="M654 419l3 -23l3 23z" fill="#2a80cc"/><path d="M663 420l3 -16l3 16z" fill="#2a80cc"/><path d="M673 421l3 -24l3 24z" fill="#328dd9"/><path d="M680 422l3 -20l3 20z" fill="#2a80cc"/><path d="M688 423l3 -21l3 21z" fill="#328dd9"/><path d="M696 424l3 -23l3 23z" fill="#2a80cc"/><path d="M702 424l3 -24l3 24z" fill="#4b9be0"/><path d="M711 425l3 -25l3 25z" fill="#328dd9"/><path d="M718 426l3 -15l3 15z" fill="#4b9be0"/><path d="M726 427l3 -17l3 17z" fill="#328dd9"/><path d="M733 427l3 -18l3 18z" fill="#4b9be0"/><path d="M740 428l3 -23l3 23z" fill="#2a80cc"/><path d="M747 429l3 -17l3 17z" fill="#4b9be0"/><path d="M756 430l3 -14l3 14z" fill="#328dd9"/><path d="M176 90 V320 Q176 344 200 346 L520 378" fill="none" stroke="#e8eff3" stroke-width="24" stroke-linejoin="round"/><path d="M163 160h26M163 240h26" stroke="#c8d7de" stroke-width="4"/><path d="M520 372 L640 386 L640 400 L520 388Z" fill="#83bfe8"/><path d="M560 360 Q620 362 690 378" fill="none" stroke="#9cc9ea" stroke-width="8" stroke-linecap="round" stroke-linejoin="round"/><path d="M673.4 384.9L690 378L677.6 365.0" fill="none" stroke="#9cc9ea" stroke-width="7" stroke-linecap="round" stroke-linejoin="round"/><path d="M210 300 L520 332" stroke="#83bfe8" stroke-width="4" stroke-dasharray="2 12" stroke-linecap="round"/><path d="M210 288v24M520 320v24" stroke="#83bfe8" stroke-width="5" stroke-linecap="round"/>
</svg>
