<svg xmlns="http://www.w3.org/2000/svg" viewBox="0 0 800 600" width="800" height="600">
<defs><radialGradient id="mlr-cu-bg" cx="50%" cy="38%" r="75%"><stop offset="0" stop-color="#0d4563"/><stop offset="1" stop-color="#082f45"/></radialGradient><clipPath id="mlr-cu-clip"><rect x="3" y="3" width="794" height="594" rx="26"/></clipPath></defs>
<rect x="3" y="3" width="794" height="594" rx="26" fill="url(#mlr-cu-bg)"/>
<g clip-path="url(#mlr-cu-clip)">
<rect x="0" y="380" width="800" height="220" fill="#4e7d3a"/>
<path d="M0 380 Q400 360 800 380" fill="#7fb069"/>
<rect x="130" y="110" width="22" height="280" fill="#c8d7de"/>
<circle cx="107.9" cy="63.6" r="53.3" fill="#c98a3a"/>
<circle cx="62.2" cy="114.8" r="48.7" fill="#d8a24a"/>
<circle cx="59.6" cy="111.0" r="43.4" fill="#a8642a"/>
<circle cx="127.9" cy="52.8" r="44.2" fill="#b9773a"/>
<circle cx="126.3" cy="153.5" r="44.7" fill="#c98a3a"/>
<circle cx="89.6" cy="126.9" r="58.1" fill="#d8a24a"/>
<circle cx="154.0" cy="96.3" r="58.5" fill="#a8642a"/>
<circle cx="57.5" cy="157.7" r="47.4" fill="#b9773a"/>
<circle cx="75.3" cy="59.2" r="47.7" fill="#c98a3a"/>
<circle cx="197.5" cy="67.5" r="52.1" fill="#d8a24a"/>
<circle cx="165.3" cy="93.0" r="51.6" fill="#a8642a"/>
<circle cx="60.4" cy="51.4" r="46.1" fill="#b9773a"/>
<circle cx="172.8" cy="100.4" r="47.8" fill="#c98a3a"/>
<circle cx="155.6" cy="103.8" r="47.6" fill="#d8a24a"/>
<path d="M330 470 L690 440 L740 560 L300 590 Z" fill="#328dd9"/>
<path d="M330 470 L300 590 M690 440 L740 560" stroke="#5aa7e2" stroke-width="5"/>
<ellipse cx="387.2" cy="488.2" rx="15.1" ry="7.2" fill="#b9773a" transform="rotate(48 387.2 488.2)"/>
<ellipse cx="506.5" cy="461.3" rx="18.2" ry="8.7" fill="#c98a3a" transform="rotate(134 506.5 461.3)"/>
<ellipse cx="408.0" cy="492.8" rx="14.4" ry="6.9" fill="#a8642a" transform="rotate(163 408.0 492.8)"/>
<ellipse cx="581.7" cy="505.5" rx="12.0" ry="5.8" fill="#b9773a" transform="rotate(2 581.7 505.5)"/>
<ellipse cx="475.7" cy="474.0" rx="17.5" ry="8.4" fill="#d8a24a" transform="rotate(27 475.7 474.0)"/>
<ellipse cx="485.6" cy="412.6" rx="19.4" ry="9.3" fill="#b9773a" transform="rotate(132 485.6 412.6)"/>
<ellipse cx="473.4" cy="415.8" rx="13.4" ry="6.4" fill="#b9773a" transform="rotate(34 473.4 415.8)"/>
<ellipse cx="480.0" cy="462.2" rx="17.0" ry="8.2" fill="#a8642a" transform="rotate(71 480.0 462.2)"/>
<ellipse cx="540.4" cy="444.9" rx="20.0" ry="9.6" fill="#c98a3a" transform="rotate(8 540.4 444.9)"/>
<ellipse cx="601.3" cy="425.8" rx="15.5" ry="7.5" fill="#c98a3a" transform="rotate(16 601.3 425.8)"/>
<ellipse cx="396.0" cy="504.4" rx="17.9" ry="8.6" fill="#a8642a" transform="rotate(108 396.0 504.4)"/>
<ellipse cx="389.8" cy="466.5" rx="17.4" ry="8.3" fill="#c98a3a" transform="rotate(18 389.8 466.5)"/>
<ellipse cx="461.5" cy="412.3" rx="17.9" ry="8.6" fill="#b9773a" transform="rotate(140 461.5 412.3)"/>
<ellipse cx="578.0" cy="419.5" rx="14.7" ry="7.0" fill="#c98a3a" transform="rotate(41 578.0 419.5)"/>
<ellipse cx="458.3" cy="424.4" rx="15.6" ry="7.5" fill="#b9773a" transform="rotate(130 458.3 424.4)"/>
<ellipse cx="396.3" cy="529.7" rx="14.2" ry="6.8" fill="#b9773a" transform="rotate(66 396.3 529.7)"/>
<ellipse cx="461.2" cy="454.6" rx="15.8" ry="7.6" fill="#d8a24a" transform="rotate(162 461.2 454.6)"/>
<ellipse cx="459.6" cy="395.1" rx="13.4" ry="6.4" fill="#a8642a" transform="rotate(29 459.6 395.1)"/>
<ellipse cx="582.7" cy="472.4" rx="12.5" ry="6.0" fill="#d8a24a" transform="rotate(37 582.7 472.4)"/>
<ellipse cx="460.8" cy="472.7" rx="14.0" ry="6.7" fill="#a8642a" transform="rotate(121 460.8 472.7)"/>
<ellipse cx="529.1" cy="450.4" rx="13.6" ry="6.5" fill="#b9773a" transform="rotate(75 529.1 450.4)"/>
<ellipse cx="597.1" cy="508.7" rx="16.2" ry="7.8" fill="#d8a24a" transform="rotate(81 597.1 508.7)"/>
<ellipse cx="601.0" cy="518.5" rx="16.7" ry="8.0" fill="#c98a3a" transform="rotate(173 601.0 518.5)"/>
<ellipse cx="483.1" cy="518.3" rx="12.8" ry="6.1" fill="#a8642a" transform="rotate(63 483.1 518.3)"/>
<ellipse cx="483.2" cy="508.4" rx="16.9" ry="8.1" fill="#a8642a" transform="rotate(84 483.2 508.4)"/>
<ellipse cx="629.3" cy="428.3" rx="17.0" ry="8.1" fill="#c98a3a" transform="rotate(66 629.3 428.3)"/>
<ellipse cx="583.6" cy="396.8" rx="13.1" ry="6.3" fill="#a8642a" transform="rotate(119 583.6 396.8)"/>
<ellipse cx="597.8" cy="420.2" rx="17.2" ry="8.3" fill="#a8642a" transform="rotate(39 597.8 420.2)"/>
<ellipse cx="480.8" cy="420.2" rx="12.9" ry="6.2" fill="#a8642a" transform="rotate(2 480.8 420.2)"/>
<ellipse cx="395.3" cy="472.1" rx="13.5" ry="6.5" fill="#a8642a" transform="rotate(45 395.3 472.1)"/>
<ellipse cx="483.3" cy="388.1" rx="16.1" ry="7.8" fill="#b9773a" transform="rotate(173 483.3 388.1)"/>
<ellipse cx="380.2" cy="501.9" rx="14.1" ry="6.8" fill="#b9773a" transform="rotate(62 380.2 501.9)"/>
<ellipse cx="651.4" cy="458.9" rx="18.9" ry="9.1" fill="#c98a3a" transform="rotate(2 651.4 458.9)"/>
<ellipse cx="646.9" cy="460.6" rx="16.9" ry="8.1" fill="#a8642a" transform="rotate(178 646.9 460.6)"/>
<ellipse cx="439.6" cy="518.5" rx="13.0" ry="6.3" fill="#a8642a" transform="rotate(165 439.6 518.5)"/>
<ellipse cx="423.9" cy="434.8" rx="19.9" ry="9.5" fill="#c98a3a" transform="rotate(38 423.9 434.8)"/>
<ellipse cx="601.3" cy="423.4" rx="17.6" ry="8.4" fill="#c98a3a" transform="rotate(88 601.3 423.4)"/>
<ellipse cx="510.6" cy="432.9" rx="13.4" ry="6.4" fill="#c98a3a" transform="rotate(138 510.6 432.9)"/>
<ellipse cx="588.9" cy="432.3" rx="17.4" ry="8.4" fill="#a8642a" transform="rotate(123 588.9 432.3)"/>
<ellipse cx="541.0" cy="462.9" rx="15.1" ry="7.2" fill="#a8642a" transform="rotate(135 541.0 462.9)"/>
<ellipse cx="644.1" cy="479.4" rx="17.0" ry="8.1" fill="#b9773a" transform="rotate(72 644.1 479.4)"/>
<ellipse cx="389.7" cy="528.8" rx="17.0" ry="8.2" fill="#d8a24a" transform="rotate(77 389.7 528.8)"/>
<ellipse cx="602.7" cy="419.5" rx="18.2" ry="8.7" fill="#b9773a" transform="rotate(126 602.7 419.5)"/>
<ellipse cx="596.7" cy="448.3" rx="19.8" ry="9.5" fill="#b9773a" transform="rotate(4 596.7 448.3)"/>
<ellipse cx="583.0" cy="400.2" rx="19.8" ry="9.5" fill="#c98a3a" transform="rotate(92 583.0 400.2)"/>
<ellipse cx="638.7" cy="474.0" rx="14.3" ry="6.9" fill="#a8642a" transform="rotate(13 638.7 474.0)"/>
<ellipse cx="602.5" cy="443.3" rx="15.0" ry="7.2" fill="#a8642a" transform="rotate(96 602.5 443.3)"/>
<ellipse cx="427.1" cy="466.5" rx="18.6" ry="8.9" fill="#b9773a" transform="rotate(177 427.1 466.5)"/>
<ellipse cx="624.0" cy="431.5" rx="13.7" ry="6.6" fill="#d8a24a" transform="rotate(21 624.0 431.5)"/>
<ellipse cx="541.2" cy="471.7" rx="16.8" ry="8.1" fill="#d8a24a" transform="rotate(9 541.2 471.7)"/>
<ellipse cx="435.2" cy="433.9" rx="13.0" ry="6.3" fill="#c98a3a" transform="rotate(132 435.2 433.9)"/>
<ellipse cx="438.9" cy="485.8" rx="17.6" ry="8.4" fill="#a8642a" transform="rotate(161 438.9 485.8)"/>
<ellipse cx="631.9" cy="529.2" rx="13.3" ry="6.4" fill="#c98a3a" transform="rotate(67 631.9 529.2)"/>
<ellipse cx="546.7" cy="443.9" rx="12.5" ry="6.0" fill="#b9773a" transform="rotate(88 546.7 443.9)"/>
<ellipse cx="494.5" cy="453.3" rx="14.1" ry="6.8" fill="#d8a24a" transform="rotate(160 494.5 453.3)"/>
<ellipse cx="539.4" cy="507.9" rx="15.6" ry="7.5" fill="#d8a24a" transform="rotate(85 539.4 507.9)"/>
<ellipse cx="564.3" cy="427.5" rx="13.6" ry="6.5" fill="#b9773a" transform="rotate(167 564.3 427.5)"/>
<ellipse cx="471.4" cy="411.6" rx="12.7" ry="6.1" fill="#b9773a" transform="rotate(68 471.4 411.6)"/>
<ellipse cx="555.3" cy="441.4" rx="13.3" ry="6.4" fill="#b9773a" transform="rotate(107 555.3 441.4)"/>
<ellipse cx="547.3" cy="398.1" rx="14.4" ry="6.9" fill="#c98a3a" transform="rotate(68 547.3 398.1)"/>
<ellipse cx="570.4" cy="500.2" rx="14.2" ry="6.8" fill="#c98a3a" transform="rotate(95 570.4 500.2)"/>
<ellipse cx="516.6" cy="521.6" rx="12.7" ry="6.1" fill="#b9773a" transform="rotate(142 516.6 521.6)"/>
<ellipse cx="633.8" cy="453.6" rx="12.2" ry="5.9" fill="#c98a3a" transform="rotate(80 633.8 453.6)"/>
<ellipse cx="598.5" cy="446.8" rx="13.9" ry="6.7" fill="#a8642a" transform="rotate(174 598.5 446.8)"/>
<ellipse cx="469.4" cy="518.7" rx="16.8" ry="8.0" fill="#c98a3a" transform="rotate(177 469.4 518.7)"/>
<ellipse cx="395.2" cy="521.8" rx="13.1" ry="6.3" fill="#c98a3a" transform="rotate(6 395.2 521.8)"/>
<ellipse cx="496.7" cy="493.2" rx="14.0" ry="6.7" fill="#b9773a" transform="rotate(82 496.7 493.2)"/>
<ellipse cx="641.7" cy="459.7" rx="17.9" ry="8.6" fill="#b9773a" transform="rotate(32 641.7 459.7)"/>
<ellipse cx="505.9" cy="500.6" rx="13.0" ry="6.3" fill="#c98a3a" transform="rotate(1 505.9 500.6)"/>
<ellipse cx="637.7" cy="496.1" rx="12.0" ry="5.8" fill="#d8a24a" transform="rotate(48 637.7 496.1)"/>
<ellipse cx="522.0" cy="518.4" rx="19.6" ry="9.4" fill="#a8642a" transform="rotate(169 522.0 518.4)"/>
<ellipse cx="386.4" cy="525.7" rx="19.8" ry="9.5" fill="#d8a24a" transform="rotate(76 386.4 525.7)"/>
<ellipse cx="618.4" cy="452.7" rx="16.7" ry="8.0" fill="#c98a3a" transform="rotate(90 618.4 452.7)"/>
<ellipse cx="529.3" cy="450.4" rx="14.2" ry="6.8" fill="#c98a3a" transform="rotate(127 529.3 450.4)"/>
<ellipse cx="592.3" cy="405.6" rx="18.5" ry="8.9" fill="#b9773a" transform="rotate(89 592.3 405.6)"/>
<ellipse cx="418.7" cy="511.0" rx="17.4" ry="8.4" fill="#d8a24a" transform="rotate(6 418.7 511.0)"/>
<ellipse cx="540.6" cy="483.9" rx="18.3" ry="8.8" fill="#d8a24a" transform="rotate(14 540.6 483.9)"/>
<ellipse cx="660.0" cy="468.4" rx="17.4" ry="8.3" fill="#b9773a" transform="rotate(179 660.0 468.4)"/>
<ellipse cx="601.2" cy="430.7" rx="16.5" ry="7.9" fill="#d8a24a" transform="rotate(31 601.2 430.7)"/>
<ellipse cx="525.8" cy="510.5" rx="15.5" ry="7.5" fill="#c98a3a" transform="rotate(72 525.8 510.5)"/>
<ellipse cx="433.8" cy="538.0" rx="13.4" ry="6.4" fill="#d8a24a" transform="rotate(52 433.8 538.0)"/>
<ellipse cx="88.2" cy="451.0" rx="13.4" ry="6.4" fill="#a8642a" transform="rotate(174 88.2 451.0)"/>
<ellipse cx="545.2" cy="481.0" rx="13.7" ry="6.6" fill="#c98a3a" transform="rotate(135 545.2 481.0)"/>
<ellipse cx="548.5" cy="495.6" rx="10.9" ry="5.2" fill="#c98a3a" transform="rotate(117 548.5 495.6)"/>
<ellipse cx="446.1" cy="498.8" rx="12.8" ry="6.1" fill="#c98a3a" transform="rotate(52 446.1 498.8)"/>
<ellipse cx="368.7" cy="484.7" rx="12.6" ry="6.0" fill="#c98a3a" transform="rotate(128 368.7 484.7)"/>
<ellipse cx="585.9" cy="586.3" rx="10.8" ry="5.2" fill="#a8642a" transform="rotate(131 585.9 586.3)"/>
<ellipse cx="447.4" cy="535.2" rx="11.6" ry="5.6" fill="#a8642a" transform="rotate(75 447.4 535.2)"/>
<ellipse cx="82.3" cy="548.0" rx="12.2" ry="5.8" fill="#b9773a" transform="rotate(64 82.3 548.0)"/>
<ellipse cx="477.9" cy="567.5" rx="13.3" ry="6.4" fill="#a8642a" transform="rotate(146 477.9 567.5)"/>
<ellipse cx="635.3" cy="502.0" rx="13.7" ry="6.6" fill="#a8642a" transform="rotate(170 635.3 502.0)"/>
<ellipse cx="575.1" cy="535.2" rx="12.7" ry="6.1" fill="#d8a24a" transform="rotate(16 575.1 535.2)"/>
<ellipse cx="441.8" cy="530.5" rx="11.6" ry="5.6" fill="#c98a3a" transform="rotate(89 441.8 530.5)"/>
<ellipse cx="151.6" cy="432.8" rx="10.9" ry="5.2" fill="#d8a24a" transform="rotate(146 151.6 432.8)"/>
<ellipse cx="308.8" cy="167.6" rx="11.6" ry="5.6" fill="#d8a24a" transform="rotate(23 308.8 167.6)"/>
<ellipse cx="689.6" cy="290.4" rx="12.7" ry="6.1" fill="#a8642a" transform="rotate(50 689.6 290.4)"/>
<ellipse cx="447.8" cy="233.4" rx="13.1" ry="6.3" fill="#c98a3a" transform="rotate(120 447.8 233.4)"/>
<ellipse cx="620.2" cy="61.5" rx="14.0" ry="6.7" fill="#b9773a" transform="rotate(82 620.2 61.5)"/>
<ellipse cx="346.4" cy="152.8" rx="10.3" ry="4.9" fill="#d8a24a" transform="rotate(62 346.4 152.8)"/>
<ellipse cx="425.1" cy="75.9" rx="13.7" ry="6.6" fill="#c98a3a" transform="rotate(108 425.1 75.9)"/>
<ellipse cx="275.0" cy="272.9" rx="11.5" ry="5.5" fill="#a8642a" transform="rotate(155 275.0 272.9)"/>
<ellipse cx="740.5" cy="248.1" rx="12.3" ry="5.9" fill="#a8642a" transform="rotate(73 740.5 248.1)"/>
<path d="M760 150 L560 470" stroke="#d8c49a" stroke-width="12" stroke-linecap="round"/>
<path d="M520 450 L600 500" stroke="#e8eff3" stroke-width="10" stroke-linecap="round"/>
<path d="M520 450 l-14 22" stroke="#e8eff3" stroke-width="5" stroke-linecap="round"/>
<path d="M536 460 l-14 22" stroke="#e8eff3" stroke-width="5" stroke-linecap="round"/>
<path d="M552 470 l-14 22" stroke="#e8eff3" stroke-width="5" stroke-linecap="round"/>
<path d="M568 480 l-14 22" stroke="#e8eff3" stroke-width="5" stroke-linecap="round"/>
<path d="M584 490 l-14 22" stroke="#e8eff3" stroke-width="5" stroke-linecap="round"/>
<path d="M600 500 l-14 22" stroke="#e8eff3" stroke-width="5" stroke-linecap="round"/>
</g>
</svg>
