<svg xmlns="http://www.w3.org/2000/svg" viewBox="0 0 800 600" width="800" height="600">
<defs><radialGradient id="g" cx="50%" cy="38%" r="75%"><stop offset="0" stop-color="#0d4563"/><stop offset="1" stop-color="#082f45"/></radialGradient></defs>
<rect width="800" height="600" fill="url(#g)"/>
<ellipse cx="400" cy="552" rx="330" ry="16" fill="#00121c" opacity=".32"/>
<path d="M60 300 H740 V512 Q740 530 722 530 H78 Q60 530 60 512Z" fill="#c8d7de"/>
<rect x="60" y="300" width="680" height="74" fill="#e8eff3"/>
<rect x="60" y="374" width="680" height="70" fill="#d8e3e9"/>
<ellipse cx="285" cy="367" rx="6.3" ry="3.3" fill="#0d4563" opacity="0.09"/><ellipse cx="312" cy="350" rx="5.5" ry="2.8" fill="#0d4563" opacity="0.08"/><ellipse cx="120" cy="356" rx="5.1" ry="3.8" fill="#0d4563" opacity="0.06"/><ellipse cx="220" cy="450" rx="7.7" ry="5.2" fill="#0d4563" opacity="0.08"/><ellipse cx="711" cy="348" rx="7.3" ry="4.3" fill="#0d4563" opacity="0.06"/><ellipse cx="151" cy="394" rx="7.1" ry="3.9" fill="#0d4563" opacity="0.09"/><ellipse cx="491" cy="406" rx="5.7" ry="3.0" fill="#0d4563" opacity="0.05"/><ellipse cx="208" cy="460" rx="5.1" ry="3.1" fill="#0d4563" opacity="0.09"/><ellipse cx="369" cy="393" rx="7.0" ry="4.9" fill="#0d4563" opacity="0.07"/><ellipse cx="449" cy="432" rx="7.4" ry="5.3" fill="#0d4563" opacity="0.07"/><ellipse cx="713" cy="361" rx="5.1" ry="3.7" fill="#0d4563" opacity="0.06"/><ellipse cx="393" cy="347" rx="6.3" ry="4.6" fill="#0d4563" opacity="0.09"/><ellipse cx="645" cy="395" rx="6.5" ry="4.4" fill="#0d4563" opacity="0.09"/><ellipse cx="371" cy="488" rx="7.7" ry="5.0" fill="#0d4563" opacity="0.10"/><ellipse cx="114" cy="463" rx="6.2" ry="5.0" fill="#0d4563" opacity="0.11"/><ellipse cx="260" cy="408" rx="6.3" ry="3.2" fill="#0d4563" opacity="0.08"/><ellipse cx="184" cy="361" rx="3.3" ry="2.4" fill="#0d4563" opacity="0.06"/><ellipse cx="235" cy="409" rx="7.4" ry="3.9" fill="#0d4563" opacity="0.08"/><ellipse cx="432" cy="495" rx="7.1" ry="5.4" fill="#0d4563" opacity="0.07"/><ellipse cx="345" cy="403" rx="7.4" ry="5.8" fill="#0d4563" opacity="0.06"/><ellipse cx="189" cy="381" rx="4.2" ry="2.7" fill="#0d4563" opacity="0.09"/><ellipse cx="245" cy="341" rx="5.1" ry="3.1" fill="#0d4563" opacity="0.09"/><ellipse cx="695" cy="462" rx="5.6" ry="3.8" fill="#0d4563" opacity="0.10"/><ellipse cx="109" cy="498" rx="6.9" ry="5.3" fill="#0d4563" opacity="0.11"/><ellipse cx="330" cy="410" rx="3.5" ry="2.4" fill="#0d4563" opacity="0.05"/><ellipse cx="118" cy="377" rx="3.8" ry="2.3" fill="#0d4563" opacity="0.05"/><ellipse cx="74" cy="367" rx="3.5" ry="2.1" fill="#0d4563" opacity="0.05"/><ellipse cx="644" cy="448" rx="3.7" ry="2.2" fill="#0d4563" opacity="0.07"/><ellipse cx="311" cy="362" rx="7.2" ry="5.8" fill="#0d4563" opacity="0.08"/><ellipse cx="389" cy="355" rx="3.5" ry="2.1" fill="#0d4563" opacity="0.07"/><ellipse cx="614" cy="368" rx="3.1" ry="2.4" fill="#0d4563" opacity="0.09"/><ellipse cx="170" cy="436" rx="3.1" ry="2.1" fill="#0d4563" opacity="0.12"/><ellipse cx="637" cy="463" rx="4.3" ry="2.6" fill="#0d4563" opacity="0.06"/><ellipse cx="577" cy="434" rx="6.9" ry="4.1" fill="#0d4563" opacity="0.07"/><ellipse cx="603" cy="513" rx="7.3" ry="5.4" fill="#0d4563" opacity="0.11"/><ellipse cx="556" cy="380" rx="5.6" ry="3.4" fill="#0d4563" opacity="0.05"/><ellipse cx="92" cy="389" rx="4.3" ry="3.0" fill="#0d4563" opacity="0.12"/><ellipse cx="366" cy="505" rx="7.9" ry="6.2" fill="#0d4563" opacity="0.08"/><ellipse cx="218" cy="380" rx="4.0" ry="2.2" fill="#0d4563" opacity="0.09"/><ellipse cx="661" cy="488" rx="5.4" ry="3.8" fill="#0d4563" opacity="0.11"/><ellipse cx="129" cy="456" rx="7.5" ry="5.5" fill="#0d4563" opacity="0.10"/><ellipse cx="386" cy="371" rx="6.9" ry="4.2" fill="#0d4563" opacity="0.11"/><ellipse cx="708" cy="410" rx="5.0" ry="3.9" fill="#0d4563" opacity="0.10"/><ellipse cx="185" cy="362" rx="3.8" ry="2.9" fill="#0d4563" opacity="0.11"/><ellipse cx="169" cy="485" rx="7.9" ry="5.5" fill="#0d4563" opacity="0.07"/><ellipse cx="432" cy="363" rx="3.1" ry="2.4" fill="#0d4563" opacity="0.10"/>
<rect x="60" y="300" width="680" height="40" fill="#328dd9" opacity=".42"/>
<path d="M60 340 H740" stroke="#bfe0f5" stroke-width="2.5" stroke-dasharray="3 9" stroke-linecap="round" opacity=".85"/>
<rect x="60" y="297" width="680" height="9" rx="3" fill="#328dd9"/>
<path d="M118 299 H142 V406 Q142 418 130 418 Q118 418 118 406Z" fill="#145693"/>
<path d="M213 299 H237 V406 Q237 418 225 418 Q213 418 213 406Z" fill="#145693"/>
<path d="M393 299 H417 V406 Q417 418 405 418 Q393 418 393 406Z" fill="#145693"/>
<path d="M563 299 H587 V406 Q587 418 575 418 Q563 418 563 406Z" fill="#145693"/>
<path d="M658 299 H682 V406 Q682 418 670 418 Q658 418 658 406Z" fill="#145693"/>
<path d="M64.0 302 Q68.3 276.2 68.8 260.3 Q70.0 280.1 72.0 302Z" fill="#4b9be0"/>
<path d="M70.3 302 Q75.6 271.2 76.8 252.1 Q77.6 276.0 79.6 302Z" fill="#2a80cc"/>
<path d="M77.1 302 Q84.3 276.2 90.1 260.4 Q88.1 280.2 85.3 302Z" fill="#4b9be0"/>
<path d="M83.8 302 Q85.9 270.4 81.8 250.7 Q85.9 275.3 92.4 302Z" fill="#4b9be0"/>
<path d="M91.1 302 Q96.5 279.4 99.8 265.6 Q99.3 282.8 98.5 302Z" fill="#4b9be0"/>
<path d="M96.6 302 Q102.5 268.4 106.3 247.3 Q105.4 273.6 104.3 302Z" fill="#4b9be0"/>
<path d="M103.4 302 Q109.4 266.9 111.9 244.9 Q111.9 272.5 112.7 302Z" fill="#2a80cc"/>
<path d="M112.1 302 Q118.7 271.3 124.1 252.2 Q122.3 276.1 119.4 302Z" fill="#83bfe8"/>
<path d="M116.9 302 Q119.8 277.6 116.5 262.7 Q120.0 281.4 126.3 302Z" fill="#2a80cc"/>
<path d="M124.9 302 Q128.9 267.3 128.0 245.5 Q130.0 272.7 133.9 302Z" fill="#4b9be0"/>
<path d="M131.3 302 Q136.5 271.2 137.5 252.0 Q138.4 276.0 140.6 302Z" fill="#328dd9"/>
<path d="M140.3 302 Q145.1 265.3 147.1 242.2 Q147.4 271.1 147.7 302Z" fill="#83bfe8"/>
<path d="M148.0 302 Q152.8 266.6 153.7 244.3 Q154.7 272.1 156.8 302Z" fill="#5aa7e2"/>
<path d="M156.2 302 Q158.3 265.4 155.6 242.3 Q158.8 271.1 163.5 302Z" fill="#2a80cc"/>
<path d="M163.4 302 Q165.3 265.3 160.5 242.2 Q164.9 271.1 172.4 302Z" fill="#2a80cc"/>
<path d="M172.0 302 Q175.6 279.3 174.8 265.5 Q176.8 282.8 180.1 302Z" fill="#328dd9"/>
<path d="M177.3 302 Q178.8 270.8 173.5 251.3 Q178.3 275.6 186.1 302Z" fill="#83bfe8"/>
<path d="M185.1 302 Q187.5 266.3 184.9 243.9 Q188.0 271.9 192.6 302Z" fill="#328dd9"/>
<path d="M191.7 302 Q195.9 278.5 197.1 264.2 Q197.9 282.1 198.8 302Z" fill="#5aa7e2"/>
<path d="M199.3 302 Q202.2 275.4 199.4 259.0 Q202.6 279.5 208.1 302Z" fill="#83bfe8"/>
<path d="M206.2 302 Q212.6 265.8 217.3 243.0 Q215.9 271.5 214.1 302Z" fill="#2a80cc"/>
<path d="M213.9 302 Q220.6 274.0 224.8 256.7 Q223.7 278.4 222.6 302Z" fill="#328dd9"/>
<path d="M221.6 302 Q225.6 266.1 225.7 243.4 Q227.2 271.7 229.6 302Z" fill="#5aa7e2"/>
<path d="M230.0 302 Q232.4 273.3 229.6 255.5 Q232.8 277.8 237.8 302Z" fill="#83bfe8"/>
<path d="M235.9 302 Q240.0 273.6 240.9 256.0 Q241.8 278.0 243.0 302Z" fill="#4b9be0"/>
<path d="M242.8 302 Q247.6 277.7 249.1 262.8 Q249.7 281.4 250.6 302Z" fill="#83bfe8"/>
<path d="M249.8 302 Q255.6 274.5 258.0 257.5 Q258.0 278.8 258.7 302Z" fill="#328dd9"/>
<path d="M257.6 302 Q258.5 265.9 252.9 243.1 Q257.9 271.5 265.5 302Z" fill="#2a80cc"/>
<path d="M264.2 302 Q265.9 270.9 262.1 251.6 Q265.9 275.8 271.7 302Z" fill="#83bfe8"/>
<path d="M272.3 302 Q277.8 275.8 281.1 259.7 Q280.6 279.8 279.6 302Z" fill="#328dd9"/>
<path d="M280.2 302 Q282.0 269.8 277.7 249.6 Q281.9 274.8 288.5 302Z" fill="#83bfe8"/>
<path d="M286.2 302 Q290.2 276.9 289.4 261.5 Q291.4 280.8 295.0 302Z" fill="#328dd9"/>
<path d="M294.1 302 Q299.0 265.9 301.0 243.2 Q301.3 271.6 301.7 302Z" fill="#5aa7e2"/>
<path d="M299.4 302 Q301.8 268.9 298.5 248.2 Q302.1 274.1 307.8 302Z" fill="#83bfe8"/>
<path d="M306.1 302 Q310.0 277.9 310.3 263.1 Q311.6 281.5 313.5 302Z" fill="#4b9be0"/>
<path d="M311.5 302 Q317.8 275.6 321.4 259.3 Q320.7 279.7 320.2 302Z" fill="#4b9be0"/>
<path d="M317.9 302 Q321.1 277.7 318.6 262.9 Q321.6 281.4 326.9 302Z" fill="#83bfe8"/>
<path d="M325.1 302 Q328.0 270.5 325.5 250.8 Q328.5 275.4 333.5 302Z" fill="#328dd9"/>
<path d="M335.0 302 Q336.0 285.3 333.6 275.5 Q336.2 287.8 340.0 302Z" fill="#d8eaf5"/>
<path d="M345.0 302 Q348.9 282.6 351.1 271.1 Q350.7 285.5 350.0 302Z" fill="#d8eaf5"/>
<path d="M352.7 302 Q356.2 279.6 357.9 266.1 Q357.8 283.0 357.7 302Z" fill="#d8eaf5"/>
<path d="M361.9 302 Q364.6 277.6 364.8 262.6 Q365.6 281.3 366.9 302Z" fill="#ffffff"/>
<path d="M371.5 302 Q375.5 278.6 377.8 264.3 Q377.3 282.1 376.5 302Z" fill="#ffffff"/>
<path d="M380.9 302 Q384.7 286.4 386.7 277.3 Q386.4 288.6 385.9 302Z" fill="#d8eaf5"/>
<path d="M389.5 302 Q393.2 284.9 395.0 274.8 Q394.8 287.4 394.5 302Z" fill="#ffffff"/>
<path d="M398.2 302 Q401.5 286.7 402.7 277.8 Q402.9 288.9 403.2 302Z" fill="#ffffff"/>
<path d="M406.7 302 Q407.7 284.5 405.4 274.2 Q407.9 287.1 411.7 302Z" fill="#d8eaf5"/>
<path d="M414.9 302 Q417.8 277.8 418.3 263.0 Q419.0 281.5 419.9 302Z" fill="#ffffff"/>
<path d="M422.3 302 Q425.0 277.5 425.1 262.4 Q426.0 281.2 427.3 302Z" fill="#ffffff"/>
<path d="M430.4 302 Q433.0 284.9 433.2 274.8 Q434.0 287.4 435.4 302Z" fill="#ffffff"/>
<path d="M437.9 302 Q441.7 279.2 443.8 265.3 Q443.4 282.7 442.9 302Z" fill="#ffffff"/>
<path d="M447.4 302 Q450.3 286.7 450.9 277.9 Q451.5 288.9 452.4 302Z" fill="#ffffff"/>
<path d="M454.5 302 Q456.3 284.2 455.2 273.7 Q456.9 286.8 459.5 302Z" fill="#d8eaf5"/>
<path d="M463.1 302 Q465.0 286.3 464.2 277.2 Q465.7 288.6 468.1 302Z" fill="#ffffff"/>
<path d="M472.6 302 Q473.7 279.4 471.5 265.6 Q474.0 282.8 477.6 302Z" fill="#ffffff"/>
<path d="M478.7 302 Q484.6 265.6 488.7 242.6 Q487.7 271.3 486.0 302Z" fill="#4b9be0"/>
<path d="M485.3 302 Q486.6 277.3 481.6 262.2 Q486.2 281.1 493.3 302Z" fill="#2a80cc"/>
<path d="M492.7 302 Q494.6 274.4 491.0 257.3 Q494.7 278.7 500.5 302Z" fill="#328dd9"/>
<path d="M498.0 302 Q503.9 279.5 506.5 265.9 Q506.4 283.0 507.0 302Z" fill="#4b9be0"/>
<path d="M504.0 302 Q509.2 274.2 510.4 257.0 Q511.1 278.5 513.0 302Z" fill="#2a80cc"/>
<path d="M512.3 302 Q518.3 279.0 522.9 265.0 Q521.6 282.5 519.5 302Z" fill="#2a80cc"/>
<path d="M519.7 302 Q526.5 275.1 531.8 258.4 Q530.0 279.2 527.7 302Z" fill="#328dd9"/>
<path d="M526.3 302 Q531.1 271.9 533.4 253.1 Q533.5 276.6 533.5 302Z" fill="#2a80cc"/>
<path d="M532.2 302 Q533.1 277.7 527.6 262.9 Q532.5 281.4 540.0 302Z" fill="#4b9be0"/>
<path d="M540.3 302 Q543.7 275.8 543.3 259.7 Q545.1 279.9 547.6 302Z" fill="#4b9be0"/>
<path d="M547.6 302 Q553.3 270.0 556.1 250.0 Q555.9 275.0 556.0 302Z" fill="#328dd9"/>
<path d="M556.0 302 Q559.6 269.3 559.3 248.8 Q561.0 274.4 563.6 302Z" fill="#2a80cc"/>
<path d="M560.8 302 Q562.9 278.3 558.2 263.8 Q562.6 281.9 570.0 302Z" fill="#5aa7e2"/>
<path d="M569.8 302 Q575.6 274.7 579.7 257.8 Q578.7 278.9 576.9 302Z" fill="#328dd9"/>
<path d="M576.7 302 Q583.7 267.6 589.0 245.9 Q587.3 273.0 585.1 302Z" fill="#328dd9"/>
<path d="M582.1 302 Q586.6 268.5 586.7 247.6 Q588.1 273.8 590.9 302Z" fill="#328dd9"/>
<path d="M589.5 302 Q594.0 278.2 594.6 263.6 Q595.7 281.8 597.8 302Z" fill="#4b9be0"/>
<path d="M595.4 302 Q602.8 278.5 608.7 264.1 Q606.6 282.1 604.0 302Z" fill="#2a80cc"/>
<path d="M603.1 302 Q606.4 268.7 605.1 247.9 Q607.4 274.0 611.0 302Z" fill="#2a80cc"/>
<path d="M611.4 302 Q618.3 271.6 623.8 252.6 Q621.9 276.3 619.3 302Z" fill="#5aa7e2"/>
<path d="M620.1 302 Q625.3 273.7 628.2 256.1 Q628.0 278.0 627.5 302Z" fill="#4b9be0"/>
<path d="M627.5 302 Q631.7 269.9 631.9 249.8 Q633.2 274.9 635.7 302Z" fill="#2a80cc"/>
<path d="M635.3 302 Q637.2 277.4 632.5 262.4 Q636.9 281.2 644.2 302Z" fill="#4b9be0"/>
<path d="M644.4 302 Q650.4 271.2 654.5 251.9 Q653.5 276.0 651.8 302Z" fill="#5aa7e2"/>
<path d="M649.5 302 Q656.8 272.2 661.9 253.6 Q660.2 276.8 658.6 302Z" fill="#4b9be0"/>
<path d="M658.4 302 Q663.7 275.3 666.1 258.9 Q666.1 279.4 666.4 302Z" fill="#4b9be0"/>
<path d="M666.1 302 Q667.9 275.8 664.6 259.6 Q668.1 279.8 673.2 302Z" fill="#2a80cc"/>
<path d="M673.8 302 Q678.0 276.7 678.8 261.2 Q679.8 280.6 681.4 302Z" fill="#2a80cc"/>
<path d="M681.3 302 Q688.5 277.5 694.2 262.6 Q692.2 281.3 689.5 302Z" fill="#4b9be0"/>
<path d="M687.2 302 Q694.0 271.2 698.7 252.1 Q697.3 276.0 695.8 302Z" fill="#328dd9"/>
<path d="M694.4 302 Q700.7 269.2 704.9 248.7 Q703.8 274.4 702.4 302Z" fill="#328dd9"/>
<path d="M701.0 302 Q703.7 276.3 700.6 260.5 Q704.0 280.2 709.7 302Z" fill="#328dd9"/>
<path d="M710.0 302 Q712.1 267.3 709.1 245.5 Q712.4 272.8 717.5 302Z" fill="#83bfe8"/>
<path d="M716.1 302 Q720.7 270.6 722.8 251.1 Q723.0 275.5 723.2 302Z" fill="#83bfe8"/>
<path d="M722.0 302 Q723.7 279.0 719.9 264.9 Q723.7 282.5 729.3 302Z" fill="#328dd9"/>
<path d="M728.0 302 Q734.1 275.8 739.0 259.7 Q737.5 279.8 735.0 302Z" fill="#2a80cc"/>
<path d="M114 54.4 C125.4 68.9 124.4 81.4 114 81.4 C103.6 81.4 102.6 68.9 114 54.4Z" fill="#83bfe8"/>
<path d="M114 119.8 C125.8 134.8 124.8 147.8 114 147.8 C103.2 147.8 102.2 134.8 114 119.8Z" fill="#83bfe8"/>
<path d="M109 170.7 C120.9 185.8 119.8 198.8 109 198.8 C98.2 198.8 97.1 185.8 109 170.7Z" fill="#83bfe8"/>
<path d="M189 86.7 C198.2 98.3 197.3 108.3 189 108.3 C180.7 108.3 179.8 98.3 189 86.7Z" fill="#83bfe8"/>
<path d="M178 144.6 C188.6 158.1 187.6 169.6 178 169.6 C168.4 169.6 167.4 158.1 178 144.6Z" fill="#83bfe8"/>
<path d="M175 209.2 C184.5 221.3 183.7 231.7 175 231.7 C166.3 231.7 165.5 221.3 175 209.2Z" fill="#83bfe8"/>
<path d="M262 50.5 C273.3 64.9 272.3 77.3 262 77.3 C251.7 77.3 250.7 64.9 262 50.5Z" fill="#83bfe8"/>
<path d="M260 114.5 C269.3 126.3 268.4 136.4 260 136.4 C251.6 136.4 250.7 126.3 260 114.5Z" fill="#83bfe8"/>
<path d="M249 182.2 C257.8 193.4 257.0 203.0 249 203.0 C241.0 203.0 240.2 193.4 249 182.2Z" fill="#83bfe8"/>
<path d="M323 88.2 C332.5 100.3 331.6 110.6 323 110.6 C314.4 110.6 313.5 100.3 323 88.2Z" fill="#83bfe8"/>
<path d="M333 151.8 C342.8 164.2 341.9 174.9 333 174.9 C324.1 174.9 323.2 164.2 333 151.8Z" fill="#83bfe8"/>
<path d="M328 211.9 C339.0 226.0 338.0 238.0 328 238.0 C318.0 238.0 317.0 226.0 328 211.9Z" fill="#83bfe8"/>
<path d="M407 49.9 C418.1 64.0 417.1 76.1 407 76.1 C396.9 76.1 395.9 64.0 407 49.9Z" fill="#83bfe8"/>
<path d="M406 123.8 C415.8 136.2 414.9 146.9 406 146.9 C397.1 146.9 396.2 136.2 406 123.8Z" fill="#83bfe8"/>
<path d="M395 178.5 C404.3 190.3 403.4 200.4 395 200.4 C386.6 200.4 385.7 190.3 395 178.5Z" fill="#83bfe8"/>
<path d="M469 77.3 C479.8 91.0 478.8 102.8 469 102.8 C459.2 102.8 458.2 91.0 469 77.3Z" fill="#83bfe8"/>
<path d="M475 139.6 C484.9 152.2 484.0 163.0 475 163.0 C466.0 163.0 465.1 152.2 475 139.6Z" fill="#83bfe8"/>
<path d="M478 204.9 C488.4 218.1 487.4 229.4 478 229.4 C468.6 229.4 467.6 218.1 478 204.9Z" fill="#83bfe8"/>
<path d="M545 51.8 C556.1 66.0 555.1 78.1 545 78.1 C534.9 78.1 533.9 66.0 545 51.8Z" fill="#83bfe8"/>
<path d="M553 114.1 C561.9 125.4 561.1 135.1 553 135.1 C544.9 135.1 544.1 125.4 553 114.1Z" fill="#83bfe8"/>
<path d="M551 184.1 C559.9 195.4 559.1 205.1 551 205.1 C542.9 205.1 542.1 195.4 551 184.1Z" fill="#83bfe8"/>
<path d="M615 85.4 C625.7 99.1 624.7 110.7 615 110.7 C605.3 110.7 604.3 99.1 615 85.4Z" fill="#83bfe8"/>
<path d="M610 140.3 C619.4 152.3 618.5 162.5 610 162.5 C601.5 162.5 600.6 152.3 610 140.3Z" fill="#83bfe8"/>
<path d="M613 210.6 C624.3 224.9 623.3 237.3 613 237.3 C602.7 237.3 601.7 224.9 613 210.6Z" fill="#83bfe8"/>
<path d="M697 60.5 C706.9 73.2 706.0 84.0 697 84.0 C688.0 84.0 687.1 73.2 697 60.5Z" fill="#83bfe8"/>
<path d="M690 113.5 C701.4 127.9 700.3 140.3 690 140.3 C679.7 140.3 678.6 127.9 690 113.5Z" fill="#83bfe8"/>
<path d="M694 172.4 C705.4 186.9 704.4 199.4 694 199.4 C683.6 199.4 682.6 186.9 694 172.4Z" fill="#83bfe8"/>
</svg>
